<svg xmlns="http://www.w3.org/2000/svg" width="32" height="32" viewBox="0 0 24 24" fill="#181717">
  <path d="M12 .5C5.65.5.5 5.65.5 12c0 5.08 3.29 9.38 7.86 10.9.58.1.79-.25.79-.56v-2.17c-3.2.69-3.88-1.37-3.88-1.37-.52-1.34-1.28-1.69-1.28-1.69-1.05-.71.08-.69.08-.69 1.16.08 1.77 1.2 1.77 1.2 1.03 1.76 2.69 1.25 3.35.95.1-.75.4-1.25.73-1.54-2.56-.29-5.26-1.28-5.26-5.72 0-1.26.45-2.3 1.2-3.11-.12-.29-.52-1.47.11-3.07 0 0 .98-.31 3.2 1.19a11.1 11.1 0 0 1 5.82 0c2.22-1.5 3.2-1.19 3.2-1.19.63 1.6.23 2.78.11 3.07.75.81 1.2 1.85 1.2 3.11 0 4.45-2.7 5.42-5.27 5.71.41.36.78 1.08.78 2.18v3.23c0 .31.21.67.8.56A11.51 11.51 0 0 0 23.5 12C23.5 5.65 18.35.5 12 .5z"/>
</svg>