<svg xmlns="http://www.w3.org/2000/svg" width="152" height="40" viewBox="0 0 152 40">
  <rect width="152" height="40" rx="4" fill="#181717"/>
  <path d="M20 8c-5.5 0-10 4.5-10 10 0 4.4 2.9 8.1 6.8 9.4.5.1.7-.2.7-.5v-1.9c-2.8.6-3.4-1.3-3.4-1.3-.5-1.2-1.1-1.5-1.1-1.5-.9-.6.1-.6.1-.6 1 .1 1.5 1 1.5 1 .9 1.5 2.3 1.1 2.9.8.1-.6.3-1.1.6-1.3-2.2-.3-4.6-1.1-4.6-4.9 0-1.1.4-2 1-2.7-.1-.3-.4-1.3.1-2.7 0 0 .8-.3 2.7 1a9.4 9.4 0 015 0c1.9-1.3 2.7-1 2.7-1 .5 1.4.2 2.4.1 2.7.6.7 1 1.6 1 2.7 0 3.8-2.4 4.6-4.6 4.9.4.3.7.9.7 1.8v2.7c0 .3.2.6.7.5C27.1 26.1 30 22.4 30 18c0-5.5-4.5-10-10-10z" fill="#ffffff"/>
  <text x="40" y="25" font-family="Arial, Helvetica, sans-serif" font-weight="700" font-size="14" letter-spacing="1" fill="#ffffff">GITHUB</text>
</svg>