<svg xmlns="http://www.w3.org/2000/svg" width="32" height="32" viewBox="0 0 24 24" fill="#6E40C9">
  <path d="M12 2a10 10 0 100 20 10 10 0 000-20zm6.93 9h-3.08a15.8 15.8 0 00-1.2-4.13A8.03 8.03 0 0118.93 11zM12 4.06c.83 1.02 1.47 2.63 1.8 4.94h-3.6C10.53 6.69 11.17 5.08 12 4.06zM9.35 6.87A15.8 15.8 0 008.15 11H5.07a8.03 8.03 0 014.28-4.13zM4.06 13h4.09c.11 1.63.48 3.11 1.2 4.13A8.03 8.03 0 014.06 13zm7.94 6.94c-.83-1.02-1.47-2.63-1.8-4.94h3.6c-.33 2.31-.97 3.92-1.8 4.94zm2.65-2.81c.72-1.02 1.09-2.5 1.2-4.13h4.09a8.03 8.03 0 01-5.29 4.13z"/>
</svg>